<svg xmlns="http://www.w3.org/2000/svg" width="1024" height="1024" viewBox="0 0 1024 1024" role="img" aria-label="CUT-OFF app icon">
  <title>CUT-OFF App Icon</title>
  <rect width="1024" height="1024" fill="#FFFFFF"/>
  <g transform="translate(89.620 253.992) scale(3.537075)">
    <path d="M235.17,6.17 L234.67,5.83 L80.67,6 L70.83,7.17 L65.83,8.17 L56.33,11 L49.33,14 L39.83,19 L34,23 L29.17,27 L22,34 L18,38.83 L14.17,44.67 L10,52.5 L8.17,56.83 L6,63.33 L4.17,71.83 L3.5,79 L3.5,88.83 L4,94.33 L6,103.83 L10,114.5 L13.17,120.67 L18,128.33 L24,136 L30.5,142.67 L38,148.67 L50.17,156.67 L69.83,167.67 L72,168.33 L73.17,168 L92.17,150.5 L92.5,149.67 L92.33,149.17 L88.5,147 L75,140.67 L66,135.83 L57.5,130.67 L49.67,125 L42.67,118.5 L38,112.5 L34,105.17 L31,96.67 L30,91 L29.83,81.33 L30.67,74.83 L32.17,68.83 L35.17,61.67 L38.17,57 L41,53.33 L48.33,45.83 L54.5,41 L63.67,36 L73.17,32.83 L83.33,31.17 L89.83,30.83 L209.67,30.83 L212.67,28.67 L225.5,16.17 L230.67,11.67 L235,7.33 L235.33,6.67 Z M78.17,126.33 L79.17,128.83 L81,130.83 L82.17,131.67 L85,132.83 L108.17,133 L109.5,132.5 L111.67,130.83 L124.67,118.83 L125,117.5 L124.5,117 L85.17,117.17 L82.17,118.17 L79.5,120.5 L78.17,123.33 Z M78.33,61.67 L79,64.33 L81.17,67 L84.17,68.67 L86.83,69.17 L170.17,69.17 L171.5,68.83 L174,66.83 L186.83,54.5 L187,53.83 L186.5,53 L86,53.17 L82.67,54.17 L80,56.33 L78.83,58.33 Z M78.83,94.67 L79.83,97.33 L81.17,99 L83.67,100.83 L86.83,101.67 L139.5,101.5 L141.5,100.67 L155.5,87.67 L156.33,86.33 L155.33,85.5 L86.5,85.67 L84.17,86 L82.17,87 L80,89.17 L79,91.33 Z" fill="#050505" fill-rule="evenodd" shape-rendering="geometricPrecision"/>
  </g>
</svg>
