<svg xmlns="http://www.w3.org/2000/svg" width="704" height="169" viewBox="0 0 704 169" role="img" aria-label="CUT-OFF logo">
  <title>CUT-OFF Logo</title>
  <path d="M235.17,6.17 L234.67,5.83 L80.67,6 L70.83,7.17 L65.83,8.17 L56.33,11 L49.33,14 L39.83,19 L34,23 L29.17,27 L22,34 L18,38.83 L14.17,44.67 L10,52.5 L8.17,56.83 L6,63.33 L4.17,71.83 L3.5,79 L3.5,88.83 L4,94.33 L6,103.83 L10,114.5 L13.17,120.67 L18,128.33 L24,136 L30.5,142.67 L38,148.67 L50.17,156.67 L69.83,167.67 L72,168.33 L73.17,168 L92.17,150.5 L92.5,149.67 L92.33,149.17 L88.5,147 L75,140.67 L66,135.83 L57.5,130.67 L49.67,125 L42.67,118.5 L38,112.5 L34,105.17 L31,96.67 L30,91 L29.83,81.33 L30.67,74.83 L32.17,68.83 L35.17,61.67 L38.17,57 L41,53.33 L48.33,45.83 L54.5,41 L63.67,36 L73.17,32.83 L83.33,31.17 L89.83,30.83 L209.67,30.83 L212.67,28.67 L225.5,16.17 L230.67,11.67 L235,7.33 L235.33,6.67 Z
M78.17,126.33 L79.17,128.83 L81,130.83 L82.17,131.67 L85,132.83 L108.17,133 L109.5,132.5 L111.67,130.83 L124.67,118.83 L125,117.5 L124.5,117 L85.17,117.17 L82.17,118.17 L79.5,120.5 L78.17,123.33 Z
M78.33,61.67 L79,64.33 L81.17,67 L84.17,68.67 L86.83,69.17 L170.17,69.17 L171.5,68.83 L174,66.83 L186.83,54.5 L187,53.83 L186.5,53 L86,53.17 L82.67,54.17 L80,56.33 L78.83,58.33 Z
M78.83,94.67 L79.83,97.33 L81.17,99 L83.67,100.83 L86.83,101.67 L139.5,101.5 L141.5,100.67 L155.5,87.67 L156.33,86.33 L155.33,85.5 L86.5,85.67 L84.17,86 L82.17,87 L80,89.17 L79,91.33 Z
M270.67,11.17 L265.17,12.17 L260.83,13.83 L258.33,15.17 L253.33,19.17 L250,23.17 L248,26.5 L246.17,31 L245.17,34.5 L244.33,40.83 L244.33,135 L245.17,141.33 L247,147.33 L250,152.83 L253.33,156.83 L258.17,160.67 L262.67,162.83 L266.17,163.83 L271,164.5 L276.5,164.5 L281.17,163.83 L284.5,162.83 L290.17,159.83 L293.83,156.83 L295.83,154.67 L297.83,152 L299.83,148.5 L301.83,143.33 L303,137.5 L303.33,112.67 L303.17,111.83 L302.33,111.17 L283,111.33 L282.5,112 L282.5,133.5 L281.83,137.17 L280.83,139.5 L278.67,141.83 L277,142.67 L274.5,143 L272,142.67 L270.33,141.83 L268.83,140.33 L267.17,137 L266.67,134.17 L266.67,41.33 L267,39 L267.83,36.83 L269,35 L270,34 L271.83,33 L277,33 L278.67,33.83 L280.83,36.17 L281.83,38.5 L282.5,42.33 L282.5,63.67 L283.17,64.33 L302.67,64.33 L303.17,63.83 L303.17,40.17 L302.67,36 L301.83,32.67 L299.83,27.5 L296.67,22.33 L292.67,18 L287.17,14.17 L281.67,12 L277,11.17 Z
M319,12.83 L318.33,14 L318.5,134.83 L319.17,140.67 L321,146.67 L324.17,152.67 L329.17,158.17 L332.5,160.67 L337,162.83 L342.67,164.17 L345.17,164.5 L350.67,164.5 L355.33,163.83 L359.17,162.67 L362.83,160.83 L366.67,158 L369.83,154.83 L371.67,152.5 L373.83,148.67 L375.67,144.17 L376.83,139.67 L377.33,134.67 L377.33,13.33 L376.83,12.83 L355.67,12.83 L355,13.67 L355.17,132.83 L354.67,137 L353.83,139.33 L352.83,140.83 L350.33,142.67 L347.67,143 L346.17,142.83 L344.33,142 L342.83,140.5 L341.17,136.83 L340.67,132.83 L340.83,13.83 L340.67,13.17 L340.17,12.83 Z
M388,12.83 L387.33,13.5 L387.5,35.17 L388.17,35.67 L407.5,35.67 L408.17,36.33 L408.17,162.33 L408.67,162.83 L429.83,162.83 L430.5,162.17 L430.33,36.33 L431.17,35.67 L450.67,35.67 L451,35.33 L451.17,13.33 L450.67,12.83 Z
M460.5,98.5 L460.33,116.33 L460.83,117.5 L489.67,117.67 L490,117.33 L490.17,98.67 L489.67,98 L461.17,98 Z
M530.83,11.17 L525.83,12 L522.67,13 L518.67,15 L514.67,18 L511,22 L509.17,24.67 L507,29 L505.17,35 L504.5,40.83 L504.5,134.83 L505.17,140.5 L507,146.67 L510,152.33 L514.83,157.83 L520.17,161.5 L525.83,163.67 L531.17,164.5 L536.67,164.5 L541.33,163.83 L545.17,162.67 L548.83,160.83 L553.83,157 L556.83,153.67 L558.83,150.67 L560.83,146.5 L562.67,140.5 L563.33,134.83 L563.33,40.83 L562.67,35.17 L560.83,29.17 L557.67,23.17 L554.17,19 L550.83,16.17 L545.17,13 L542,12 L537.17,11.17 Z
M532.5,32.83 L536.17,33 L538.17,34.33 L539.83,36.67 L540.83,39.67 L541.17,42.67 L541.17,132.83 L540.67,136.83 L538.83,140.83 L536.33,142.67 L534,143 L531.67,142.67 L530.17,141.83 L529,140.67 L527.17,136.67 L526.67,132.83 L526.67,42.83 L527,39.67 L528,36.67 L530.33,33.83 Z
M630.67,12.83 L579.17,12.83 L578.67,13.17 L578.67,162.5 L579,162.83 L600.67,162.67 L600.83,98.17 L601.33,97.67 L620.67,97.67 L621.17,96.83 L621.17,75.33 L620.67,74.83 L601.33,74.83 L600.83,74.33 L600.83,36.17 L601.33,35.67 L630.67,35.67 L631.17,34.83 L631.17,13.5 Z
M691.5,12.83 L640.33,12.83 L640,13.17 L639.83,162 L640.33,162.83 L661.17,163 L662.17,162.17 L662,98.33 L662.67,97.67 L681.83,97.67 L682.5,97.17 L682.67,75.5 L681.83,74.83 L662.67,74.83 L662.17,74.5 L662,36.33 L662.67,35.67 L691.5,35.67 L692,34.83 L692,13.33 Z" fill="#050505" fill-rule="evenodd" shape-rendering="geometricPrecision"/>
</svg>
